<?xml version="1.0" encoding="UTF-8"?>
<svg id="Layer_2" data-name="Layer 2" xmlns="http://www.w3.org/2000/svg" viewBox="0 0 3108.86 2774.03">
  <defs>
    <style>
      .cls-1 {
        fill: #ebebec;
      }

      .cls-2 {
        fill: #a4a8a9;
      }

      .cls-3, .cls-4 {
        fill: #515254;
      }

      .cls-5 {
        fill: #b2b3b4;
      }

      .cls-6 {
        fill: #b8b9b9;
      }

      .cls-7, .cls-8 {
        fill: #fff;
      }

      .cls-8 {
        stroke: #b2b3b4;
      }

      .cls-8, .cls-9, .cls-4, .cls-10, .cls-11, .cls-12 {
        stroke-miterlimit: 10;
      }

      .cls-13 {
        fill: #c1c2c3;
      }

      .cls-14 {
        fill: #f7f6f6;
      }

      .cls-9, .cls-4 {
        stroke: #515254;
      }

      .cls-9, .cls-10, .cls-12 {
        fill: none;
      }

      .cls-15 {
        fill: #fafdfb;
      }

      .cls-4 {
        stroke-width: 2px;
      }

      .cls-16 {
        stroke: #a5a7aa;
        stroke-miterlimit: 10;
        stroke-width: 1px;
      }

      .cls-16, .cls-17 {
        fill: #e4e4e3;
      }

      .cls-18 {
        fill: #dadbdc;
      }

      .cls-19 {
        fill: #231f20;
      }

      .cls-20 {
        isolation: isolate;
      }

      .cls-21 {
        fill: #b6b8b9;
      }

      .cls-10 {
        stroke: #fafdfb;
      }

      .cls-11 {
        fill: #c9cacc;
        stroke: #c0c2c4;
      }

      .cls-22 {
        fill: #dbdad9;
      }

      .cls-23 {
        fill: #c3c5c7;
      }

      .cls-24 {
        fill: #c7c8ca;
      }

      .cls-25 {
        fill: #c0c2c4;
      }

      .cls-26 {
        fill: #e9eceb;
      }

      .cls-27 {
        fill: #9dcf7a;
      }

      .cls-28 {
        fill: #5cba47;
      }

      .cls-29 {
        fill: #d8dbdb;
      }

      .cls-30 {
        fill: #d3d5d6;
      }

      .cls-31 {
        fill: #d6d6d6;
      }

      .cls-32 {
        fill: #d2d5d5;
      }

      .cls-33 {
        fill: #dddcdc;
      }

      .cls-34 {
        fill: #f1f0f0;
      }

      .cls-35 {
        fill: #4f4f51;
      }

      .cls-36 {
        fill: #e8e7e7;
      }

      .cls-37 {
        fill: #fafafa;
      }

      .cls-12 {
        stroke: #231f20;
      }

      .cls-38 {
        fill: #dee1e1;
      }

      .cls-39 {
        mix-blend-mode: multiply;
        opacity: .3;
      }

      .cls-40 {
        fill: #e6e7e8;
      }

      .cls-41 {
        fill: #e1e2e2;
      }
    </style>
  </defs>
  <g class="cls-20">
    <g id="Layer_5" data-name="Layer 5">
      <g>
        <path class="cls-27" d="M2319.06,1415.51c-26.68,7.83-50.85,43.22-105.59,140.79-34.8,62.03-43.91,49.13-72.07,127.35-22.5,62.42-19.35,101.56-13.39,150.83,1.92,15.75-4.33,31.51,8.37,50.85,19.44,29.63,46.62,35.35,97.77,55.73,17.92,7.14,86.15,34.36,151.92,73.5,50.7,30.18,63.6,45.83,91.07,42.78,26.73-2.95,33.62-19.79,77.88-42.78,37.27-19.35,69.31-26.58,85.75-30.13,21.61-4.73,79.99-16.84,145.81,0,75.91,19.4,115.68,65.57,125.14,56.17,9.65-9.55-27.32-61.39-36.82-74.87-147.29-207.79-110.52-198.34-190.56-280.4-96.29-98.75-116.72-77.68-268.14-209.46-65.13-56.66-59.91-71.23-97.17-60.35h.05Z"/>
        <path class="cls-28" d="M2470.68,2060.14c-17.43,0-30.18-8.22-53.07-22.99-9.21-5.96-19.59-12.65-32.79-20.48-29.93-17.82-80.58-44.99-151.57-73.3-8.76-3.5-16.84-6.55-24.27-9.4-36.23-13.78-58.09-22.05-74.63-47.31-9.35-14.23-8.91-26.93-8.52-38.1.15-4.77.3-9.3-.25-13.83-6.25-51.74-8.66-90.23,13.54-151.96,17.52-48.73,28.01-62.76,41.3-80.49,8.32-11.13,17.72-23.73,30.91-47.26,54.84-97.67,79.21-133.8,107.02-141.92h0c27.81-8.12,33.57-2.41,57.84,21.71,9.6,9.55,22.74,22.64,41.65,39.14,73.94,64.39,117.31,92.65,152.16,115.39,37.31,24.37,66.75,43.57,116.13,94.22,41.5,42.58,51.79,60.7,72.27,96.88,18.8,33.23,47.26,83.39,118.49,183.86l.3.44c32.69,46.13,43.86,70.05,36.23,77.58-5.41,5.37-14.77-.59-31.8-11.37-20.82-13.19-52.28-33.08-95.7-44.21-66.6-17.03-125.33-4.18-144.68,0-15.36,3.35-47.41,10.34-85.11,29.93-18.61,9.65-30.57,18.26-40.22,25.16-13.09,9.35-22.5,16.15-38.54,17.92-2.36.25-4.58.39-6.74.39h.05ZM2319.75,1417.87h0c-26.53,7.78-52.43,47.5-104.12,139.61-13.34,23.83-22.89,36.53-31.26,47.8-13.54,18.12-23.33,31.21-40.61,79.21-21.86,60.7-19.44,98.65-13.29,149.7.59,4.87.44,9.85.25,14.62-.39,10.93-.74,22.3,7.73,35.2,15.7,23.88,36.97,32,72.27,45.39,7.43,2.86,15.56,5.91,24.32,9.4,71.33,28.4,122.18,55.73,152.31,73.64,13.24,7.88,23.68,14.62,32.93,20.58,25.55,16.49,37.17,24.02,56.61,21.86,14.77-1.62,23.28-7.73,36.23-17.03,9.75-6.99,21.91-15.7,40.81-25.5,38.3-19.89,71.97-27.22,86.34-30.37,19.59-4.28,79.21-17.33,146.94,0,44.16,11.27,76.06,31.46,97.13,44.8,12.41,7.83,23.09,14.57,25.7,12.01,1.87-1.87,4.82-12.5-36.82-71.23l-.34-.44c-71.38-100.67-99.88-150.98-118.74-184.26-20.28-35.79-30.47-53.76-71.53-95.85-48.98-50.26-78.27-69.36-115.29-93.53-34.95-22.79-78.47-51.2-152.7-115.83-19.05-16.59-32.24-29.73-41.89-39.33-23.68-23.58-27.96-27.81-52.97-20.48v.05Z"/>
      </g>
      <g>
        <polygon class="cls-27" points="1616.88 1115.52 1692.45 1246.02 1737.78 1427.22 1742.66 1656.82 1747.19 1699.3 1792.03 1718.25 1784.45 1761.03 1920.86 1841.42 1990.57 1805.09 2030.19 1470.89 2035.41 1556.25 2084.44 1549.55 2091.93 1605.72 2097.39 1620.1 2154.84 1504.31 2123.68 1426.98 2203.42 1326.65 1957.09 1134.76 1625.01 1113.84 1616.88 1115.52"/>
        <path class="cls-28" d="M1920.76,1844.23l-139.02-81.96,7.53-42.48-44.4-18.76-4.68-43.91-4.87-229.5-45.19-180.61-77.14-133.16,11.81-2.41h.34l332.83,21.02.59.44,248.3,193.41-80.39,101.11,31.01,77.04-60.4,121.84-7.58-20.18-7.19-53.76-49.23,6.74-3.69-60.6-36.53,308.26-72.12,37.51v-.05ZM1787.16,1759.75l133.75,78.81,67.39-35.05,39.48-332.92,4.92.15,5.02,82.7,48.83-6.69,7.83,58.33,3.35,8.86,54.4-109.78-31.26-77.63.89-1.13,78.17-98.36-243.77-189.87-330.95-20.87-4.48.94,74.14,128.14,45.39,181.75,4.87,229.6,4.38,40.81,45.34,19.15-7.63,43.02-.05.05Z"/>
      </g>
      <g>
        <path class="cls-27" d="M1325.26,79.88c-13.09-11.57-38-30.13-74.14-38.54-50.9-11.86-91.86,4.04-106.82,10.04-16.64,6.69-38.1,15.41-56.96,36.87-29.54,33.67-31.11,74.28-31.85,93.53-.64,16.15-1.67,44.16,13.39,74.14,19.4,38.59,54.2,58.09,67.05,65.28,29.59,16.59,39.14,10.98,54.35,26.83,15.65,16.24,14.67,31.55,24.42,68.28,4.33,16.2,5.07,50.41,28.5,83,14.77,20.53,55.68,68.43,90.92,94.27,53.17,38.99,105.89,75.61,123.17,89.25,31.85,25.16,81.27,60.35,78.76,89.99-4.04,47.8-7.97,62.08,3.79,108.2,5.12,20.04,12.11,47.46,34.71,70.39,18.8,19.05,34.31,20.72,92.65,50.26,20.48,10.39,36.77,19.4,46.91,25.16-11.17-27.91-22.35-55.87-33.52-83.78,56.02-10.63,102.34-17.03,158.36-27.67,2.12.69,28.16-2.95,28.9,5.02,2.12,21.81,3.35,65.37,2.95,78.76,0,.98,11.67-.3,20.97.84.05-31.21.05-62.52,0-93.83-.34-158.61-2.31-315.55-5.86-470.91-27.07-98.01-54.2-196.07-81.27-294.08-131.83-5.86-263.66-11.72-395.44-17.57-18.16-3.89-36.33-7.83-54.49-11.72"/>
        <path class="cls-28" d="M1718.98,1032.27l-6.1-3.45c-15.21-8.61-30.96-17.03-46.82-25.11-19.94-10.09-34.75-16.88-46.67-22.35-22.6-10.34-33.97-15.56-46.62-28.4-23.09-23.38-30.18-51.2-35.35-71.53-10.24-40.12-8.61-57.05-5.46-90.87.49-5.51,1.08-11.52,1.62-18.16,2.17-25.5-38.59-57.25-68.38-80.44-3.25-2.56-6.45-5.02-9.45-7.38-9.16-7.24-28.31-20.92-52.57-38.3-21.46-15.36-45.73-32.74-70.54-50.9-36.82-27.03-78.22-76.4-91.46-94.81-18.46-25.7-23.14-52.67-26.24-70.54-.89-5.22-1.67-9.7-2.61-13.24-2.61-9.89-4.48-18.12-6.1-25.4-4.38-19.59-6.74-30.37-17.72-41.79-8.02-8.37-14.18-10.34-23.53-13.39-7.53-2.46-16.88-5.51-30.23-13-13.19-7.38-48.29-27.03-68.03-66.31-15.36-30.57-14.33-58.63-13.69-75.37.74-19.69,2.31-60.75,32.44-95.06,19.25-21.91,41.6-30.91,57.89-37.51,13.78-5.56,55.63-22.45,108.3-10.19,27.47,6.4,53.51,19.89,75.22,39.09l-3.25,3.69c-21.12-18.66-46.42-31.8-73.1-38-51.2-11.91-91.96,4.53-105.35,9.94-16.74,6.74-37.56,15.16-56.07,36.18-28.99,33.03-30.52,72.86-31.21,92.01-.64,16.29-1.67,43.52,13.14,72.95,19.05,37.95,53.21,57.01,66.01,64.19,12.95,7.24,22.05,10.19,29.39,12.6,9.3,3.05,16.64,5.42,25.55,14.67,11.91,12.41,14.57,24.37,19,44.11,1.62,7.24,3.45,15.41,6.05,25.2.98,3.74,1.82,8.37,2.71,13.69,3,17.43,7.58,43.71,25.4,68.47,13.09,18.21,54,67.05,90.38,93.73,24.76,18.16,49.08,35.54,70.49,50.85,24.32,17.38,43.47,31.11,52.77,38.4,3,2.36,6.15,4.82,9.45,7.38,32.34,25.2,72.66,56.56,70.25,84.72-.54,6.65-1.13,12.65-1.62,18.16-3.2,34.26-4.68,49.87,5.37,89.2,5.02,19.74,11.91,46.82,34.07,69.26,12.06,12.21,22.45,16.98,45.19,27.37,11.91,5.46,26.78,12.26,46.82,22.4,13.83,6.99,27.57,14.33,40.96,21.76l-32.05-80.09,2.95-.54c28.06-5.32,54.05-9.65,79.21-13.83,25.16-4.18,51.15-8.52,79.16-13.83l.59-.1.59.2c.3,0,2.26-.05,3.99-.15,10.29-.44,25.8-1.13,26.63,7.29,2.02,20.87,3.25,61.29,3,76.94h3.64c3.45,0,7.97-.1,12.36.2.05-30.32.05-60.7,0-91.12-.34-156.05-2.31-314.36-5.86-470.56l-80.73-292.06-393.67-17.52-54.89-11.77,1.03-4.82,54.49,11.72,396.82,17.62,81.86,296.45c3.59,156.3,5.56,314.76,5.86,470.96.05,31.36.05,62.62,0,93.88v2.81l-2.76-.34c-4.78-.59-10.34-.49-14.42-.44-5.42.1-6.84.1-7.93-.98l-.74-.74v-1.13c.39-13.29-.89-57.1-2.95-78.47-.15-1.72-4.04-3.59-21.51-2.86-2.71.1-4.04.2-4.92.05-27.86,5.27-53.76,9.6-78.81,13.73-24.27,4.04-49.33,8.22-76.15,13.24l35,87.53-.1.25Z"/>
      </g>
      <g>
        <path class="cls-27" d="M224.29,2567.82v-216.4l681.21,6.69v-571.18l255.54-139.36s-39.38,39.63,96.34-75.71l135.72-115.34,22.35,14.37s-37.31,93.73,58.14-92.3l95.45-186.03,64.64,126.96s47.55,172.2,10.34,272.72c-37.27,100.57-90.73,181.01-90.73,181.01,0,0-16.93,40.22-62.17,77.93-45.24,37.71-183.52,135.72-223.74,145.81l-40.22,10.04-20.13-26.83-46.08-9.65s-36.67,1.28-35.54,26.39c1.13,25.11,12.06,60.7,12.06,60.7,0,0,25.99,13.05,0,31.46-25.99,18.41-25.99,60.35-25.99,60.35l-17.72,77.09,43.66,114.8s22.2,48.34,93.63,76.99c71.43,28.65,133.9,15.6,133.9,15.6l50.36-3.79,164.52-51.93,141.63-114.8,152.51,134.05,167.57,116.87,7.93,111.84-1825.34-41.89v-16.54l.2.1Z"/>
        <path class="cls-28" d="M2052.25,2628.81h-2.71l-1827.76-42.04v-237.82l681.21,6.69v-570.15l1.28-.69,270.41-147.48-1.03,1.03c14.08-11.22,38.84-31.6,82.16-68.38l137.15-116.52,25.55,16.44-.74,1.87c-1.92,4.82-3.89,10.29-5.27,14.57,6.74-10.29,22.4-37.71,58.92-108.89l97.67-190.31,67,131.68c.49,1.72,47.36,174.12,10.24,274.24-36.92,99.69-90.43,180.71-90.97,181.5,0,0-17.43,40.81-62.62,78.47-46.08,38.4-184.16,136.16-224.72,146.3l-41.79,10.44-20.53-27.37-44.85-9.4c-2.41.15-19.79,1.43-28.26,10.63-3.35,3.64-4.82,7.93-4.63,13.14,1.03,22.25,9.94,53.36,11.67,59.12,2.9,1.67,11.22,7.24,11.91,15.75.49,6.6-3.69,13.14-12.55,19.4-24.61,17.48-24.96,57.94-24.96,58.33v.54l-17.57,76.35,43.42,114.11c.15.34,22.69,47.7,92.25,75.56,69.9,28.01,131.88,15.6,132.47,15.51l50.41-3.79,163.78-51.74,142.86-115.78,1.58,1.38,152.51,134.05,168.31,117.41.1,1.18,8.07,114.55.05.1ZM226.76,2581.95l1820.22,41.79-7.63-108-166.63-116.23-151.18-132.86-140.35,113.76-.44.15-165.06,52.08-50.36,3.79c-.3.1-63.7,12.75-134.98-15.8-71.53-28.65-94.02-76.2-94.96-78.22l-44.01-115.63,17.82-77.53c0-4.09,1.13-43.71,27.03-62.08,7.33-5.17,10.83-10.24,10.49-15.01-.54-7.33-10.09-12.21-10.14-12.26l-.94-.49-.3-.98c-.44-1.48-10.98-36.13-12.16-61.29-.3-6.55,1.67-12.16,5.91-16.74,10.49-11.37,31.11-12.21,32-12.26h.3l.3.05,47.01,9.85,19.69,26.24,38.64-9.65c39.92-9.99,176.92-107.12,222.75-145.32,44.21-36.82,61.29-76.6,61.48-76.99.74-1.23,53.95-81.77,90.68-180.91,35.94-96.98-8.37-263.66-10.34-271l-62.32-122.43-93.29,181.75c-61.58,119.97-64.93,118.44-68.23,116.96-1.97-.89-4.18-1.87,4.82-24.86l-19.1-12.26-134.34,114.16c-101.31,86.1-102.69,84.52-105.05,82.01-.34-.39-.59-.74-.69-1.13l-245.35,133.8v572.17l-681.21-6.69v228.07h-.1Z"/>
      </g>
      <g>
        <path class="cls-27" d="M1998.3,2026.47l-165.75,223.34,272.52,231.27s20.08,18.02,12.11,63.26c-7.97,45.24,4.43,62.08,4.43,62.08l4.33,24.22,60.7-7.53s45.54,26.98,146.6-16.69c101.06-43.66,211.68-128.04,211.68-128.04l-40.22-55.63s-32.49,66.31-47.26-66.9l-14.77-133.21-432.81-214.48-11.62,18.41.05-.1Z"/>
        <path class="cls-28" d="M2229.96,2633.93c-26.19,0-40.37-6.45-43.76-8.27l-62.27,7.73-4.63-25.99c-2.07-3.25-11.96-21.41-4.53-63.45,7.63-43.17-11.13-60.84-11.32-60.99l-274.24-232.7,167.08-225.12,12.75-20.18,1.97.98,433.99,215.12,14.92,134.59c7.53,67.98,19.3,79.99,25.7,81.13,7.24,1.28,14.67-10.44,16.93-15.01l1.82-3.69,44.01,60.89-1.92,1.48c-1.13.84-111.99,85.11-212.17,128.38-45.68,19.74-80.09,25.25-104.26,25.25l-.05-.15ZM2187.23,2620.59l.74.44c.44.25,45.93,25.7,144.33-16.84,92.4-39.92,194.1-114.99,209.22-126.32l-36.53-50.56c-3.45,5.61-11.08,15.85-20.23,14.23-13.93-2.41-23.63-30.37-29.73-85.46l-14.62-131.88-429.61-212.91-10.53,16.69-164.37,221.47,270.8,229.79c.94.84,21.07,19.49,12.95,65.57-7.63,43.37,3.89,60.06,4.04,60.2l.44,1.03,3.94,21.91,59.22-7.33-.05-.05Z"/>
      </g>
      <g>
        <polygon class="cls-27" points="1669.9 1841.42 1692.45 1811.84 1920.86 1926.88 1891.28 1980.24 1669.9 1841.42"/>
        <path class="cls-28" d="M1892.21,1983.69l-225.85-141.68,25.4-33.33,232.5,117.11-32.05,57.89h0ZM1673.49,1840.73l216.9,136.01,27.07-48.83-224.28-112.98-19.69,25.8Z"/>
      </g>
    </g>
    <g id="Layer_4" data-name="Layer 4">
      <g>
        <rect class="cls-37" x="1251.12" y="181.78" width="221.23" height="148.32"/>
        <path class="cls-25" d="M1474.81,332.51h-226.15v-153.24h226.15v153.24ZM1253.59,327.59h216.3v-143.4h-216.3v143.4Z"/>
      </g>
      <g>
        <rect class="cls-17" x="1424.26" y="321.19" width="339.37" height="81.82"/>
        <path class="cls-25" d="M1766.09,405.41h-344.3v-86.74h344.3v86.74ZM1426.72,400.49h334.45v-76.89h-334.45v76.89Z"/>
      </g>
      <g>
        <rect class="cls-17" x="1553.33" y="402.95" width="81.96" height="17.08"/>
        <path class="cls-25" d="M1637.76,422.5h-86.89v-22h86.89v22ZM1555.79,417.57h77.04v-12.16h-77.04v12.16Z"/>
      </g>
      <g>
        <polygon class="cls-41" points="1965.9 1195.12 2000.31 1168.53 2174.28 1330.84 2112.06 1448.98 2142.24 1499.29 2114.62 1554.57 2035.41 1564.62 1965.9 1195.12"/>
        <path class="cls-21" d="M2033.44,1567.37l-70.2-373.29,37.27-28.8,176.87,165.01-62.42,118.59,30.13,50.26-28.85,57.69-82.8,10.53ZM1968.61,1196.15l68.82,365.76,75.56-9.6,26.48-52.92-30.18-50.31,61.93-117.7-171.06-159.59-31.55,24.37Z"/>
      </g>
      <g>
        <polyline class="cls-17" points="2030.19 1564.62 2018.82 1811.84 1772.15 1728.05 1747.43 1285.6 1975.65 1273.04"/>
        <polygon class="cls-18" points="2021.14 1815.23 1769.78 1729.82 1769.68 1728.15 1744.82 1283.28 1975.5 1270.58 1975.75 1275.51 1749.99 1287.91 1774.51 1726.23 2016.56 1808.44 2027.78 1564.52 2032.66 1564.76 2021.14 1815.23"/>
      </g>
      <g>
        <rect class="cls-14" x="2315.83" y="1653.22" width="155.51" height="376.49" transform="translate(-214.44 3364.11) rotate(-67.85)"/>
        <path class="cls-34" d="M2540.14,1987.58l-353.25-143.79,60.5-148.62,353.25,143.79-60.5,148.62ZM2193.28,1841.13l344.15,140.1,56.76-139.46-344.15-140.1-56.76,139.51v-.05Z"/>
      </g>
      <g>
        <rect class="cls-14" x="2354.28" y="1710.23" width="18.9" height="54.05" transform="translate(-136.52 3271.55) rotate(-67.85)"/>
        <path class="cls-34" d="M2386.7,1759.31l-54.59-22.25,8.96-22.05,54.59,22.25-8.96,22.05ZM2338.5,1734.4l45.49,18.51,5.27-12.95-45.49-18.51-5.27,12.95h0Z"/>
      </g>
      <polygon class="cls-23" points="2366.91 1861.65 2319.6 1839.99 2352.29 1760.44 2241.53 1715.65 2242.9 1712.25 2357.11 1758.42 2324.38 1838.12 2368.43 1858.31 2366.91 1861.65"/>
      <g>
        <path class="cls-14" d="M2636.58,2417.08c-89.15-81.03-108.1-205.43-42.29-277.84,65.82-72.41,191.44-65.47,280.6,15.56"/>
        <path class="cls-6" d="M2634.9,2418.91c-90.04-81.82-109.09-208.03-42.43-281.33,66.65-73.3,194.05-66.41,284.09,15.41l-3.3,3.64c-88.02-79.99-212.32-87.03-277.15-15.75-64.78,71.33-45.93,194.4,42.09,274.39l-3.3,3.64h0Z"/>
      </g>
      <g>
        <path class="cls-22" d="M1888.81,2253.11l158.12-231.02,381.02,191.1s-3.35,30.18,6.69,77.09c10.04,46.91,40.22,78.76,50.26,117.31,10.04,38.54,6.69,120.66-105.59,159.2s-160.87,35.2-160.87,35.2l38.54-70.39-368.22-278.48h.05Z"/>
        <path class="cls-6" d="M2222.13,2604.54c-2.26,0-3.5-.1-3.79-.1l-3.84-.25,39.38-71.87-368.42-278.58,1.33-1.92,159.35-232.8,1.92.98,382.54,191.84-.2,1.72c0,.3-3.2,30.37,6.65,76.3,5.42,25.16,16.64,45.93,27.52,66.01,9.3,17.13,18.07,33.33,22.74,51.2,13.83,53.07-5.91,127.4-107.17,162.15-95.4,32.74-144.63,35.44-158.07,35.44l.05-.15ZM1892.16,2252.57l368.02,278.33-37.61,68.67c13.64-.15,63.16-3.25,155.95-35.1,129.12-44.3,106.97-144.92,104.02-156.25-4.53-17.28-13.14-33.23-22.3-50.11-11.03-20.38-22.45-41.45-28.01-67.29-8.81-41.06-7.43-69.07-6.89-76.15l-377.62-189.38-155.61,227.33.05-.05Z"/>
      </g>
      <g>
        <path class="cls-36" d="M1532.9,1319.56l-104.56,207.39s113.62-22.64,160.23,125.04c5.61,17.67,6.35,38.89,42.09-82.95,38.35-130.7-17.52-293.49-21.96-296l-34.21,46.52h-41.6,0Z"/>
        <path class="cls-33" d="M1594.88,1667.5h0c-3.64,0-5.12-4.97-6.94-11.22-.34-1.23-.74-2.46-1.13-3.69-45.58-144.33-157.03-124.05-158.12-123.81l-3.69.74,106.77-211.78h41.79l34.66-47.06,1.43.79c6.89,3.89,60.84,168.6,22.84,298.12-26.58,90.73-32.54,97.96-37.56,97.96l-.05-.05ZM1443.9,1523.96c33.33,0,110.32,13.09,146.45,127.45.39,1.28.79,2.56,1.13,3.79.89,3.05,2.36,8.12,3.45,8.61,6.35-1.08,27.12-71.97,33.97-95.3,36.28-123.71-11.77-272.92-20.38-292.16l-33.13,45.04h-41.4l-102.44,203.21c2.76-.3,6.99-.64,12.31-.64h.05Z"/>
      </g>
      <g>
        <rect class="cls-37" x="1213.03" y="1729.75" width="222.26" height="150.83" transform="translate(-875.39 1388.02) rotate(-43)"/>
        <path class="cls-37" d="M1294.15,1939.53l-106.23-113.91,166.14-154.92,106.23,113.91-166.14,154.92h0ZM1194.91,1825.87l99.49,106.72,158.95-148.22-99.49-106.72-158.95,148.22h0Z"/>
      </g>
      <g>
        <polygon class="cls-31" points="948.23 2069.69 1068.89 1756.11 1111.61 1713.97 1207.12 1828.57 1181.17 2060.88 948.23 2069.69"/>
        <path class="cls-38" d="M944.59,2072.3l122.58-317.91,44.65-44.06,97.91,117.51-.1,1.03-26.19,234.42-238.8,9.01h-.05ZM1071,1757.49l-119.13,309.59,227.09-8.57,25.65-229.15-93.14-111.75-40.46,39.92v-.05Z"/>
      </g>
      <g>
        <g class="cls-39">
          <rect class="cls-19" x="975.77" y="1781.19" width="111.84" height="74.97" transform="translate(-771.12 759.5) rotate(-30)"/>
          <path class="cls-19" d="M1001.1,1882.43l-39.92-69.16,101.16-58.38,39.92,69.16-101.16,58.38ZM967.87,1815.04l35,60.65,92.6-53.46-35-60.65-92.6,53.46Z"/>
        </g>
        <g>
          <rect class="cls-15" x="970.82" y="1776.24" width="111.84" height="74.97" transform="translate(-769.31 756.36) rotate(-30)"/>
          <path class="cls-38" d="M996.18,1877.5l-39.92-69.16,101.16-58.38,39.92,69.16-101.16,58.38ZM962.95,1810.11l35,60.65,92.6-53.46-35-60.65-92.6,53.46Z"/>
        </g>
      </g>
      <g>
        <path class="cls-13" d="M1416.63,1831.08l-25.99,60.75s-45.24,40.22-61.19,49.23l-15.9,9.01,14.23,20.53,17.57,9.65,203.6-149.16,84.72-170.92-72.17-17.57-64.54-22.45-80.44,210.99.1-.05Z"/>
        <path class="cls-38" d="M1345.59,1983.15l-19.49-10.68-16.1-23.24,18.26-10.34c14.72-8.37,55.77-44.55,60.35-48.59l25.75-60.16,81.27-213.15,66.8,23.24,74.92,18.26-86.34,174.22-205.38,150.44h-.05ZM1329.49,1968.72l15.7,8.61,201.88-147.88,83.1-167.62-69.16-16.88-62.47-21.71-79.65,208.82-26.58,61.58c-1.87,1.62-45.63,40.46-61.58,49.52l-13.59,7.68,12.36,17.82v.05Z"/>
      </g>
      <g>
        <path class="cls-13" d="M1354.55,2453.02v114.8h18.41l5.86-13.39,286.55-2.51-5.02-139.95-55.23-60.55s-4.18,20.97-131.54,63.7c-127.35,42.73-119.03,37.91-119.03,37.91h0Z"/>
        <path class="cls-38" d="M1374.64,2570.28h-22.5v-116.37l-.79-1.77,5.71-3.4v1.43c6.89-1.77,31.11-9.01,115.78-37.41,121.64-40.81,129.66-61.14,129.96-61.98l.94-4.77,3.25,3.74,55.87,61.19,5.17,143.35-287.49,2.51-5.86,13.44-.05.05ZM1357.01,2565.36h14.37l5.86-13.39,285.62-2.51-4.92-136.51-52.43-57.4c-6.15,7.93-30.96,28.26-131.19,61.88-82.16,27.57-108.55,35.89-117.36,37.51v110.42h.05ZM1355.78,2455.14h0Z"/>
      </g>
      <g>
        <rect class="cls-41" x="1026.8" y="2149.49" width="110.81" height="417.3"/>
        <path class="cls-24" d="M1140.07,2569.25h-115.73v-422.22h115.73v422.22ZM1029.26,2564.32h105.89v-412.38h-105.89v412.38Z"/>
      </g>
      <rect class="cls-2" x="1026.8" y="2224.11" width="134.29" height="4.92"/>
      <g>
        <rect class="cls-26" x="316.45" y="2358.16" width="737.37" height="209.71"/>
        <path class="cls-32" d="M1056.28,2570.28H313.99v-214.63h742.3v214.63h0ZM318.91,2565.36h732.45v-204.79H318.91v204.79Z"/>
      </g>
      <g>
        <rect class="cls-17" x="1557.47" y="1842.97" width="224.77" height="245.94" transform="translate(-909.29 1929.22) rotate(-48.84)"/>
        <path class="cls-29" d="M1688.75,2134.72l-188.88-165.11,151.18-172.94,188.88,165.11-1.62,1.87-149.55,171.06ZM1506.86,1969.17l181.45,158.61,144.68-165.5-181.45-158.61-144.68,165.5h0Z"/>
      </g>
      <g>
        <path class="cls-7" d="M1443.21,1981.13c-105.84,61.39-155.66,85.41-179.78,93.78-4.14,1.43-17.33,5.81-31.11,17.08-20.33,16.59-29.29,37.81-33.38,47.85-17.28,42.24-9.65,81.67-6.84,93.73,8.66,37.27,28.4,60.45,37.95,71.33,8.22,9.4,34.41,38.59,77.39,50.51,43.07,11.91,78.47-.34,112.29-12.01,46.22-16,76.79-38.64,107.71-61.58,55.63-41.25,40.51-46.47,99.73-85.36,24.17-15.85,47.31-25.25,40.32-30.52-25.2-19.05-82.01-87.87-98.41-101.56-9.5-7.93-69.61-79.6-95.6-98.55"/>
        <path class="cls-25" d="M1343.08,2362.1c-11.47,0-23.48-1.43-36.18-4.97-29.44-8.17-55.77-25.35-78.27-51.05-8.81-10.04-29.39-33.62-38.35-72.12-4.33-18.56-9.16-55.63,6.89-94.86,3.84-9.4,12.85-31.36,33.92-48.59,13.69-11.17,26.98-15.75,31.36-17.28,29.98-10.39,90.33-41.89,179.78-93.73l1.87,3.2c-89.64,51.98-150.24,83.59-180.12,93.93-4.53,1.58-17.38,5.96-30.52,16.74-20.38,16.64-29.09,38-32.83,47.11-15.65,38.3-10.93,74.48-6.74,92.65,8.71,37.61,28.9,60.65,37.51,70.54,22,25.16,47.75,41.99,76.5,49.92,42.53,11.77,77.43-.3,111.15-12.01,45.98-15.9,75.71-37.95,107.22-61.29,25.7-19.05,35.99-30.13,45.98-40.91,11.27-12.11,21.91-23.58,53.85-44.55,7.38-4.82,14.62-9.06,21.02-12.8,9.6-5.61,19.59-11.42,19.74-14.03,0-.2-.2-.44-.54-.69-14.92-11.22-40.22-39.14-62.57-63.8-15.7-17.28-29.24-32.24-35.94-37.86-3.35-2.76-12.01-12.41-24.07-25.8-22.94-25.45-54.4-60.3-71.43-72.71l2.17-3c17.33,12.65,48.93,47.65,71.97,73.2,11.47,12.75,20.58,22.79,23.68,25.4,6.89,5.76,20.53,20.77,36.33,38.2,22.2,24.52,47.41,52.28,62.03,63.31,1.77,1.33,2.07,2.86,2.02,3.89-.25,4.43-7.19,8.61-21.56,17.03-6.35,3.69-13.54,7.88-20.82,12.7-31.55,20.72-42.04,32-53.17,43.96-10.09,10.88-20.53,22.1-46.47,41.35-30.32,22.5-61.73,45.73-108.2,61.83-24.32,8.42-49.18,17.03-77.19,17.03v.05Z"/>
      </g>
    </g>
    <g id="Layer_2-2" data-name="Layer 2">
      <path class="cls-3" d="M2053.72,2705.26c-569.85,0-1863.79-36.48-1869.35-37.31l5.32-36.53,1.23-36.92c16.34.54,1700.41,48.98,2060.45,34.26,89.99-3.69,254.8-119.87,313.38-166.39l468.94-490.89,53.41,51-472.38,494.49-1.92,1.53c-22.84,18.26-226.94,178.65-358.42,184.01-46.08,1.87-115.24,2.71-200.65,2.71v.05Z"/>
      <rect class="cls-3" x="2235.64" y="1858.45" width="103.38" height="422.86" transform="translate(-577.77 3213.34) rotate(-63.9)"/>
      <path class="cls-3" d="M2597.05,2495.01c-3.2-2.66-7.09-5.66-11.42-9.01-30.52-23.68-81.57-63.36-109.28-126.02-10.09-22.79-40.32-104.9-6.4-205.57,41.06-121.99,170.92-156.94,185.59-160.53,103.43-25.3,216.7,14.77,288.57,102l-64.59,53.21c-51.59-62.62-131.73-91.66-204.1-73.94-4.04.98-98.9,25.01-126.12,105.94-19.3,57.25-10.78,112.44,3.64,145.02,19.2,43.42,58.24,73.74,84.08,93.78,5.07,3.94,9.6,7.48,13.34,10.58l-53.26,64.54h-.05Z"/>
      <path class="cls-3" d="M2969.6,2085.83c-1.77-2.66-175.79-268.88-264.01-404.8-21.81-33.62-92.25-76.89-117.55-90.68l-1.82-.98-1.67-1.23-254.36-188.88-278.48-215.76c-5.66-4.04-42.63-30.77-78.07-70.79-28.5-32.19-48.69-64.64-59.86-96.34-31.01-87.82-23.14-257.26-22.4-272.18v-264.05l-95.8-334.06h-400.07v-59.07h444.57l110.37,384.86v274.69c-.15,1.72-8.81,171.26,19,250.17,8.61,24.47,24.91,50.31,48.39,76.79,32.79,37.02,67.88,61.73,68.28,61.98l1.23.89,278.77,216.01,252.04,187.16c16.88,9.35,104.61,59.52,137,109.38,88.17,135.82,262.13,401.94,263.91,404.65l-49.42,32.34-.05-.1Z"/>
      <path class="cls-35" d="M211.59,2610.35h-9.85v-291.57l681.21,12.55v-547.41c-.15-.94-.15-2.17.3-3.64,4.68-14.92,54.49-41.79,95.45-61.73,89.79-43.62,116.47-58.38,190.21-105.3,73.74-46.96,221.67-191.44,223.2-192.92l2.86-2.81,21.86,14.52,75.22-118.93c75.22-118.88,53.36-175.89,53.12-176.48l9.06-3.79c1.03,2.46,24.52,61.63-53.85,185.54l-80.63,127.4-23.63-15.65c-21.07,20.43-153.05,147.58-221.92,191.4-74.14,47.21-100.96,62.03-191.2,105.84-79.21,38.5-89.1,53.07-90.23,55.43v558.48l-681.21-12.55v281.53l.05.1Z"/>
      <circle class="cls-4" cx="2046.93" cy="1941.06" r="81.03"/>
      <rect class="cls-3" x="1704.2" y="2108.94" width="369.25" height="29.54" transform="translate(-944.52 2347.19) rotate(-52.86)"/>
      <g>
        <path class="cls-3" d="M2324.47,1384.89l-37.71,14.28-1.23,13,3.74,15.51s1.38,18.07-8.76,41.45c-10.39,23.88-37.91,49.28-45.88,56.56-6.94,6.3-29.54-5.02-29.54-5.02l-20.97,34.36s-31.41,36.43-73.3,147.88c0,0-10.49,80.04-4.18,155.02,6.2,74.33.84,62.03.84,62.03l-82.9-28.4s-4.18-30.03,10.83-46.62c15.01-16.59,20.38-50.8,23.04-125.68,2.51-70.79,2.12-13,2.12-13l.84-130.7,17.03-1.67s3.05,27.62,7.24,59.91c5.22,40.12,17.23-2.26,18.46,2.07l62.42-134.49s-26.39-26.98-31.85-36.63c-8.32-14.67-3.79-15.7-3.79-15.7,0,0,32.59-53.61,48.39-77.93,8.76-13.49,13.19-23.97,22-24.52,17.82-1.08,28.31,10.04,28.31,10.04l4.33,7.43,7.19-44.5,83.34,65.32h0Z"/>
        <path class="cls-9" d="M2229.61,1356.63s-10.49-11.13-28.31-10.04c-8.81.54-13.24,11.03-22,24.52-15.8,24.32-48.39,77.93-48.39,77.93,0,0-4.53,1.03,3.79,15.7,5.46,9.65,31.85,36.63,31.85,36.63l-62.42,134.49c-1.23-4.33-13.24,38.05-18.46-2.07-4.18-32.29-7.24-59.91-7.24-59.91l-17.03,1.67-.84,130.7s.39-57.79-2.12,13c-2.66,74.87-8.02,109.09-23.04,125.68-15.01,16.59-10.83,46.62-10.83,46.62l82.9,28.4s5.37,12.31-.84-62.03c-6.3-74.97,4.18-155.02,4.18-155.02,41.89-111.45,73.3-147.88,73.3-147.88l20.97-34.36s22.6,11.32,29.54,5.02c7.97-7.29,35.49-32.69,45.88-56.56,10.14-23.38,8.76-41.45,8.76-41.45l-3.74-15.51,1.23-13,37.71-14.28-83.34-65.32-7.19,44.5-4.33-7.43h0Z"/>
      </g>
      <path class="cls-3" d="M2092.22,2697.14c-4.87,0-22.45-1.62-25.4-24.52-.3-2.17-.64-5.32-1.03-9.25-.79-7.43-1.77-17.92-2.95-30.13-3.5-36.43-8.32-86.34-12.8-116.52,0-.3-.1-.64-.15-.94-13.05-12.55-66.95-53.41-163.78-125.82-36.23-27.07-93.33-79.99-131.29-117.11l-3.5-3.45c-9.89-9.7-20.13-19.69-25.45-23.48-4.53,3-12.75,10.09-20.18,16.54-27.03,23.43-72.22,62.62-163.29,115.29-42.88,24.81-156.3,77.78-283.06,34.02-58.97-20.38-130.11-81.22-152.01-158.17-14.57-51.25-4.48-100.13,29.19-141.48,16.74-20.53,23.53-48.14,18.71-75.71-1.38-7.78-2.26-13.05-2.76-16.34-3.79-24.66,12.6-30.91,17.67-32.24,8.32-2.17,23.43-2.31,31.46,20.87.74,2.17,2.56,7.38,4.23,11.37,82.7,12.55,252.09-112.34,287.29-150.39l3.89-4.23c43.32-46.67,133.41-143.74,160.87-293.94,16.54-90.33,23.73-158.17-24.86-273.85-3.54-8.47-11.47-21.91-20.63-37.46-13.98-23.73-31.36-53.31-46.96-87.58-1.67-3.64-3.3-7.19-4.92-10.68-15.65-33.62-31.8-68.38-6.35-103.28l1.13-1.58,1.38-1.38c30.18-29.98,88.12-23.38,88.66-23.33l149.4,20.13c52.03,6.74,77.73,8.52,104.9,10.44,26.68,1.87,54.3,3.74,107.96,10.73l-6.35,48.83c-52.18-6.79-77.83-8.57-105-10.44-26.68-1.87-54.3-3.74-107.96-10.73l-149.16-20.13c-10.83-1.28-36.38.49-46.37,8.22-5.66,9.5-1.87,21.02,12.41,51.69,1.67,3.59,3.4,7.29,5.12,11.08,14.47,31.9,31.16,60.2,44.55,82.95,10.49,17.82,18.76,31.9,23.63,43.42,53.76,127.99,45.49,205.82,27.91,301.76-30.08,164.32-126.76,268.49-173.23,318.55l-3.89,4.18c-29.39,31.75-198.19,166.78-312.59,166.78-3.89,0-7.78-.15-11.52-.49-2.9,27.12-13.34,52.82-30.47,73.84-23.38,28.7-30.13,61.29-19.99,96.88,17.08,60.06,74.97,109.28,120.75,125.09,110.56,38.2,213.45-13.39,242.35-30.08,86.98-50.31,130.01-87.58,155.66-109.88,21.81-18.9,36.18-31.41,56.66-29.34,18.46,1.87,31.65,14.82,55.68,38.3l3.5,3.4c48.54,47.5,98.16,91.81,126.37,112.88,91.61,68.52,131.58,98.9,152.6,116.13,21.86,17.87,30.77,26.88,30.62,43.66,4.58,31.46,9.45,81.52,12.95,118.15,1.67,17.48,3.45,35.49,3.99,38.84-1.67-10.09-12.01-20.43-25.75-19.4-12.9.94-21.36,11.27-22.55,20.97l49.08-1.08c.59,26.48-19.3,28.99-23.28,29.19h-1.03l-.05.25Z"/>
      <g>
        <path class="cls-3" d="M2035.07,1845.46l-63.9,92.94-24.17-17.72-125.68-60.7-124.05-64.09-20.08-23.48s-13.39-16.74-28.5-10.04c-10.63,4.73-13.69,7.78-14.57,9.16l38.05-86.25,20.08,23.48c20.13,23.43,65.37,26.78,65.37,26.78l-11.72,46.91s191.05,97.22,225.26,100.57c32,3.15,60.25-32.83,63.9-37.56Z"/>
        <g>
          <path class="cls-9" d="M2035.41,1844.92l-.3.44s-.05.05-.05.1c-3.64,4.73-31.9,40.71-63.9,37.56-34.21-3.35-225.26-100.57-225.26-100.57l11.72-46.91s-45.24-3.35-65.37-26.78l-20.08-23.48-38.05,86.25"/>
          <path class="cls-9" d="M1634.11,1771.52c.89-1.38,3.94-4.43,14.57-9.16,15.11-6.69,28.5,10.04,28.5,10.04l20.08,23.48,124.05,64.09,125.68,60.7,24.17,17.72,63.9-92.94"/>
          <path class="cls-9" d="M1634.11,1771.52l-.39.89s0-.34.39-.89Z"/>
        </g>
      </g>
      <path class="cls-3" d="M1772.44,1073.33c-16.49-9.35-49.52-24.47-81.52-39.09-31.95-14.62-65.03-29.73-82.21-39.38-39.18-14.77-59.76-37.91-70.2-54.79-14.33-23.19-17.03-45.83-21.17-80.09-3-24.91-2.41-39.04-1.97-50.41.39-9.5.69-16.34-1.53-25.89-6.65-29.24-30.08-47.55-82.41-86.2l-20.33-15.01c-122.72-90.63-135.57-100.08-155.36-125.48-27.86-35.69-48-61.48-59.91-103.08-3.5-12.11-5.56-23.38-7.43-33.28-4.09-21.96-7.33-39.28-22.74-55.92-7.09-7.63-11.86-9.99-19.84-13.88-7.04-3.45-15.8-7.68-29.19-16.88-4.14-2.86-8.32-5.51-12.55-8.17-19.69-12.45-40.02-25.35-54.49-55.92-22.64-47.9-14.87-107.86-6.69-135.77,9.5-32.44,34.56-68.77,60.89-88.36,14.82-11.03,89.79-42.09,147.48-30.57,61.04,12.16,115.04,66.85,130.7,86.89l1.38,1.77c20.77,26.63,22.55,26.83,27.37,23.24l8.76,11.91c-17.43,12.85-28.21-.94-47.8-26.04l-1.38-1.72c-13.73-17.57-65.57-70.3-121.94-81.52-50.8-10.09-120.8,16.79-135.77,27.96-26.78,19.84-48.19,55.58-55.53,80.63-.84,2.86-20.13,70.3,5.86,125.28,12.6,26.68,30.27,37.9,49.03,49.72,4.38,2.76,8.71,5.51,13.05,8.47,12.45,8.57,20.68,12.55,27.27,15.8,8.52,4.18,15.26,7.43,24.22,17.13,18.31,19.79,22.05,39.92,26.43,63.26,1.87,10.04,3.84,20.43,7.09,31.9,11.13,38.84,30.52,63.65,57.4,98.06,18.56,23.78,31.26,33.13,152.51,122.67l20.33,15.01c51.49,38.05,79.9,59.02,88.02,94.81,2.61,11.47,2.26,19.54,1.87,29.78-.44,10.83-.98,24.32,1.87,48.05,4.04,33.47,6.45,53.66,19.05,74.09,9.25,14.97,27.71,35.59,63.36,48.93l1.03.49c16.49,9.35,49.57,24.47,81.57,39.09,32.24,14.77,65.62,30.03,82.65,39.68l-7.29,12.85h.05Z"/>
      <g>
        <path class="cls-40" d="M1264.96,420.87s-98.01-32.69,40.22,75.42c138.28,108.1,248.15,196.07,248.15,196.07,0,0,36.92,52.77,80.39,128.19,43.47,75.42,53.51,133.21,91.22,145.81,37.71,12.6,109.63-10.04,109.63-10.04l-9.06-540.07-560.55,4.63h0Z"/>
        <path class="cls-30" d="M1753.54,972.07c-10.58,0-20.68-1.08-29.14-3.94-25.55-8.52-38.74-37.07-56.96-76.6-9.6-20.77-20.43-44.3-35.3-70.05-41.55-72.07-77.53-124.05-80.14-127.84-5.46-4.38-114.11-91.27-247.96-195.88-73.4-57.4-77.29-72.56-73.84-78.96,4.87-9.06,29.39-1.58,35.05.25l562.08-4.63v1.82l9.11,541.45-1.33.39c-2.31.74-44.94,13.98-81.62,13.98h.05ZM1240.98,418.12c-3.79,0-6.6.69-7.53,2.41-1.97,3.69,1.18,18.26,72.86,74.33,136.7,106.87,247.07,195.19,248.2,196.07l.34.39c.39.54,37.46,53.71,80.49,128.34,14.92,25.89,25.84,49.52,35.44,70.35,17.82,38.64,30.72,66.6,54.79,74.63,33.97,11.32,97.22-6.69,107.17-9.65l-9.01-536.82-559.02,4.63-.3-.1c-7.19-2.41-16.74-4.53-23.38-4.53l-.05-.05Z"/>
      </g>
      <rect class="cls-11" x="1460.39" y="216.78" width="267.06" height="178.99"/>
      <rect class="cls-16" x="1752.77" y="1365.17" width="253.86" height="234.52" transform="translate(-68.47 91.21) rotate(-2.73)"/>
      <polygon class="cls-8" points="2123.48 2186.26 2064.16 2143.13 2114.96 2073.33 2174.28 2116.5 2168.92 2123.84 2123.48 2186.26"/>
      <path class="cls-8" d="M2164.88,2120.15l154.18,82.11-25.16,59.52s20.13,6.69,7.53,32.69l-14.18,3.35s-28.35-16.74-48.69-31.6c-30.87-22.55-110.61-86.15-110.61-86.15l36.87-59.86.05-.05Z"/>
      <g>
        <g class="cls-39">
          <ellipse class="cls-19" cx="1450.05" cy="1671.34" rx="146.4" ry="142.66"/>
          <path class="cls-19" d="M1450.05,1816.46c-82.11,0-148.86-65.08-148.86-145.12s66.8-145.12,148.86-145.12,148.86,65.08,148.86,145.12-66.8,145.12-148.86,145.12ZM1450.05,1531.19c-79.4,0-143.94,62.91-143.94,140.2s64.59,140.2,143.94,140.2,143.94-62.91,143.94-140.2-64.59-140.2-143.94-140.2Z"/>
        </g>
        <g>
          <ellipse class="cls-37" cx="1435.28" cy="1666.42" rx="146.4" ry="142.66"/>
          <path class="cls-37" d="M1435.28,1811.54c-82.11,0-148.86-65.08-148.86-145.12s66.8-145.12,148.86-145.12,148.86,65.08,148.86,145.12-66.8,145.12-148.86,145.12ZM1435.28,1526.27c-79.4,0-143.94,62.91-143.94,140.2s64.59,140.2,143.94,140.2,143.94-62.91,143.94-140.2-64.59-140.2-143.94-140.2Z"/>
        </g>
      </g>
      <g>
        <g class="cls-39">
          <rect class="cls-19" x="1058.74" y="1856.14" width="57.79" height="119.43"/>
          <rect class="cls-12" x="1058.74" y="1856.14" width="57.79" height="119.43"/>
        </g>
        <g>
          <rect class="cls-37" x="1053.82" y="1851.22" width="57.79" height="119.43"/>
          <rect class="cls-10" x="1053.82" y="1851.22" width="57.79" height="119.43"/>
        </g>
      </g>
    </g>
    <g id="Layer_3" data-name="Layer 3">
      <g>
        <rect class="cls-7" x="1607.12" y="461.21" width="170.57" height="291.57" transform="translate(-105.52 594.42) rotate(-19.33)"/>
        <path class="cls-25" d="M1659.12,775.06l-97.77-278.63,164.42-57.69,97.77,278.63-164.42,57.69ZM1566.08,498.7l95.3,271.68,157.48-55.23-95.3-271.68-157.48,55.23Z"/>
      </g>
      <g>
        <g class="cls-39">
          <path class="cls-19" d="M1707.21,1250.94s56.22,22.74,49.23,231.27c-7.53,226.25-15.06,211.14-15.06,211.14l214.53,84.82s36.18-170.28,39.58-294.08c2.66-98.45-39.82-310.62-39.82-310.62l-248.4,77.43-.05.05Z"/>
          <path class="cls-19" d="M1957.73,1781.56l-216.06-85.46-1.23.25-1.23-1.92-2.86-5.76,4.43,1.72c2.02-6.4,7.68-39.33,13.29-208.33,6.79-203.36-47.16-228.71-47.75-228.96l-6.15-2.61,6.35-2.02,251.01-78.27.54,2.66c.44,2.12,42.53,213.55,39.87,311.17-3.35,122.62-39.23,292.85-39.63,294.53l-.59,2.86v.15ZM1745.07,1692.16l209.02,82.65c4.73-22.84,35.84-177.37,38.89-290.79,2.46-91.12-34.36-282.47-39.28-307.37l-240.72,75.07c13.88,10.83,51.69,56.56,45.93,230.58-5.32,159.2-10.44,199.42-13.88,209.86h.05Z"/>
        </g>
        <g>
          <path class="cls-37" d="M1692.45,1246.02s56.22,22.74,49.23,231.27c-7.53,226.25-15.06,211.14-15.06,211.14l214.53,84.82s36.18-170.28,39.58-294.08c2.66-98.45-39.82-310.62-39.82-310.62l-248.4,77.43-.05.05Z"/>
          <path class="cls-37" d="M1942.96,1776.64l-216.06-85.46-1.23.25-1.23-1.92-2.86-5.76,4.43,1.72c2.02-6.4,7.68-39.33,13.29-208.33,6.79-203.36-47.16-228.71-47.75-228.96l-6.15-2.61,6.35-2.02,251.01-78.27.54,2.66c.44,2.12,42.53,213.55,39.87,311.17-3.35,122.62-39.23,292.85-39.63,294.53l-.59,2.86v.15ZM1730.3,1687.24l209.02,82.65c4.73-22.84,35.84-177.37,38.89-290.79,2.46-91.12-34.36-282.47-39.28-307.37l-240.72,75.07c13.88,10.83,51.69,56.56,45.93,230.58-5.32,159.2-10.44,199.42-13.88,209.86h.05Z"/>
        </g>
      </g>
      <g>
        <rect class="cls-37" x="2276.9" y="1524.61" width="125.28" height="191.05" transform="translate(315.64 3620.67) rotate(-79.37)"/>
        <path class="cls-1" d="M2423.37,1701.42l-191.4-35.94,23.78-126.76,191.4,35.94-23.78,126.76ZM2236.31,1662.58l184.16,34.56,22.45-119.47-184.16-34.56-22.45,119.47Z"/>
      </g>
      <g>
        <rect class="cls-37" x="2009.01" y="2080.38" width="196.42" height="478.64" transform="translate(-1008.35 2658.27) rotate(-53.95)"/>
        <path class="cls-5" d="M2243.35,2543.4l-1.97-1.43-388.94-283.11,118.49-162.79,1.97,1.43,388.94,283.11-118.49,162.79ZM1859.28,2257.74l382.99,278.77,112.73-154.82-382.99-278.77-112.73,154.82h0Z"/>
      </g>
      <g>
        <circle class="cls-37" cx="1435.28" cy="1666.42" r="94.57"/>
        <path class="cls-5" d="M1435.28,1763.49c-53.51,0-97.03-43.52-97.03-97.03s43.52-97.03,97.03-97.03,97.03,43.52,97.03,97.03-43.52,97.03-97.03,97.03ZM1435.28,1574.31c-50.8,0-92.1,41.3-92.1,92.1s41.3,92.1,92.1,92.1,92.1-41.3,92.1-92.1-41.3-92.1-92.1-92.1Z"/>
      </g>
      <g>
        <g class="cls-39">
          <rect class="cls-19" x="959.45" y="1816.76" width="114.35" height="185.14"/>
          <path class="cls-19" d="M1076.27,2004.36h-119.28v-190.07h119.28v190.07ZM961.91,1999.44h109.43v-180.22h-109.43v180.22Z"/>
        </g>
        <g>
          <rect class="cls-37" x="954.53" y="1811.84" width="114.35" height="185.14"/>
          <path class="cls-15" d="M1071.35,1999.44h-119.28v-190.07h119.28v190.07ZM956.99,1994.52h109.43v-180.22h-109.43v180.22Z"/>
        </g>
      </g>
      <g>
        <g class="cls-39">
          <path class="cls-19" d="M1366.37,2565.75l-1.23-69.11s-3,2.51,74.97-33.33l77.98-35.84h286.4l155.9,96.63v41.65h-594.02Z"/>
          <path class="cls-19" d="M1962.9,2568.16h-598.9l-1.28-70.79-.79-1.28,5.61-4.73v1.72c5.71-2.31,22.4-9.55,71.58-32.1l79.01-36.03h287.14l157.67,97.72v45.49h-.05ZM1368.78,2563.24h589.15v-37.81l-154.18-95.5h-285.17l-77.48,35.59c-49.28,22.64-66.85,30.57-73.5,32.69l1.18,65.03Z"/>
        </g>
        <g>
          <path class="cls-15" d="M1366.37,2555.9l-1.23-69.11s-3,2.51,74.97-33.33l77.98-35.84h286.4l155.9,96.63v41.65h-594.02Z"/>
          <path class="cls-38" d="M1962.9,2558.32h-598.9l-1.28-70.79-.79-1.28,5.61-4.73v1.72c5.71-2.31,22.4-9.55,71.58-32.1l79.01-36.03h287.14l157.67,97.72v45.49h-.05ZM1368.78,2553.39h589.15v-37.81l-154.18-95.5h-285.17l-77.48,35.59c-49.28,22.64-66.85,30.57-73.5,32.69l1.18,65.03Z"/>
        </g>
      </g>
      <rect class="cls-24" x="1515.28" y="2418.36" width="2.46" height="137.54"/>
      <rect class="cls-24" x="1804.45" y="2417.56" width="2.46" height="138.28" transform="translate(-38.84 28.67) rotate(-.9)"/>
      <polygon class="cls-24" points="1892.51 2515.64 1806.65 2515.64 1806.65 2513.18 1890.04 2513.18 1890.04 2476.7 1806.65 2476.7 1806.65 2474.24 1892.51 2474.24 1892.51 2515.64"/>
      <polygon class="cls-24" points="1823.83 2475.47 1821.37 2475.47 1821.37 2443.13 1805.03 2435.05 1806.11 2432.84 1823.83 2441.6 1823.83 2475.47"/>
      <g>
        <g class="cls-39">
          <rect class="cls-19" x="948.03" y="2159.33" width="130.7" height="237.96"/>
          <path class="cls-19" d="M1081.19,2399.76h-135.62v-242.89h135.62v242.89ZM950.49,2394.83h125.78v-233.04h-125.78v233.04Z"/>
        </g>
        <g>
          <rect class="cls-14" x="938.19" y="2149.49" width="130.7" height="237.96"/>
          <path class="cls-41" d="M1071.35,2389.91h-135.62v-242.89h135.62v242.89ZM940.65,2384.99h125.78v-233.04h-125.78v233.04Z"/>
        </g>
      </g>
      <g>
        <g class="cls-39">
          <rect class="cls-19" x="934.59" y="2407.39" width="200.75" height="158.36"/>
          <path class="cls-19" d="M1137.85,2568.16h-205.67v-163.29h205.67v163.29ZM937.06,2563.24h195.83v-153.44h-195.83v153.44Z"/>
        </g>
        <g>
          <rect class="cls-14" x="924.75" y="2397.54" width="200.75" height="158.36"/>
          <path class="cls-41" d="M1128.01,2558.32h-205.67v-163.29h205.67v163.29ZM927.21,2553.39h195.83v-153.44h-195.83v153.44Z"/>
        </g>
      </g>
      <g>
        <g class="cls-39">
          <rect class="cls-19" x="779.92" y="2387.15" width="134.54" height="169.24"/>
          <path class="cls-19" d="M916.92,2558.86h-139.46v-174.17h139.46v174.17ZM782.38,2553.94h129.62v-164.32h-129.62v164.32Z"/>
        </g>
        <g>
          <rect class="cls-14" x="745.46" y="2392.08" width="134.54" height="169.24"/>
          <path class="cls-41" d="M882.46,2563.78h-139.46v-174.17h139.46v174.17ZM747.92,2558.86h129.62v-164.32h-129.62v164.32Z"/>
        </g>
      </g>
      <g>
        <g class="cls-39">
          <rect class="cls-19" x="366.61" y="2406.85" width="350.25" height="163.83"/>
          <path class="cls-19" d="M719.32,2573.09h-355.17v-168.75h355.17v168.75h0ZM369.07,2568.16h345.33v-158.91h-345.33v158.91h0Z"/>
        </g>
        <g>
          <rect class="cls-14" x="361.69" y="2392.08" width="350.25" height="163.83"/>
          <path class="cls-41" d="M714.4,2558.32h-355.17v-168.75h355.17v168.75h0ZM364.15,2553.39h345.33v-158.91h-345.33v158.91h0Z"/>
        </g>
      </g>
      <g>
        <rect class="cls-17" x="1807.82" y="1937.69" width="82.21" height="119.03" transform="translate(-871.61 2074.72) rotate(-48.84)"/>
        <path class="cls-29" d="M1866.96,2070.57l-93.33-81.57,57.35-65.62,93.33,81.57-57.35,65.62ZM1780.56,1988.56l85.9,75.12,50.9-58.19-85.9-75.12-50.9,58.19Z"/>
      </g>
      <g>
        <rect class="cls-14" x="1696.49" y="1912.1" width="129.52" height="129.52" transform="translate(-886.27 2001.76) rotate(-48.84)"/>
        <path class="cls-41" d="M1767.67,2071.51l-1.87-1.62-99.34-86.84,1.62-1.87,86.84-99.34,1.87,1.62,99.34,86.84-1.62,1.87-86.84,99.34ZM1673.4,1982.56l93.78,81.96,81.96-93.78-93.78-81.96-81.96,93.78Z"/>
      </g>
      <g>
        <path class="cls-36" d="M1464.08,2014.55c-10.73,13.05-41.89,31.8-67.93,47.9-38.84,23.92-59.27,19.05-95.01,45.24-16.69,12.21-38.84,28.4-49.13,57.94-16.79,48.05,2.46,90.04,4.68,93.33,25.84,38.64,80.39,54.79,115.88,52.28,44.16-3.15,75.02-32.39,93.97-50.26,35.59-33.67,69.61-76.94,82.6-96.39,6.05-9.06,35.2-24.37,36.63-30.72-21.86-23.78-98.5-103.28-121.64-119.23l-.05-.1Z"/>
        <path class="cls-33" d="M1364.94,2313.26c-37.27,0-85.95-17.77-109.73-53.36-3.89-5.81-21.32-48.05-4.92-94.96,10.49-30.03,33.18-46.67,49.77-58.78,19.35-14.18,34.11-19.3,49.82-24.76,13.49-4.68,27.42-9.55,45.34-20.58l4.53-2.81c24.86-15.26,53.02-32.59,62.96-44.7l1.08-1.33,1.38.98c24.42,16.84,103.87,99.78,121.94,119.47l.64.69-.2.94c-.84,3.74-7.38,8.47-17.97,15.9-7.58,5.32-16.2,11.32-18.95,15.46-12.85,19.25-46.77,62.57-82.85,96.73-18.8,17.77-50.26,47.55-95.11,50.75-2.51.2-5.12.25-7.78.25l.05.1ZM1464.43,2017.01c-11.13,12.45-38.5,29.29-62.76,44.16l-4.53,2.81c-18.26,11.22-32.39,16.15-46.03,20.92-15.41,5.37-29.98,10.44-48.83,24.22-16.2,11.86-38.35,28.11-48.49,57.05-17.43,49.87,4.23,91.37,4.48,91.71,24.71,36.92,77.29,54.1,114.21,51.44,43.52-3.1,74.38-32.34,92.79-49.77,35.89-33.97,69.56-76.94,82.31-96.09,3.15-4.73,11.67-10.68,19.89-16.44,6.45-4.48,14.28-9.99,16.1-12.9-22-23.83-95.11-99.59-119.18-117.11h.05Z"/>
      </g>
    </g>
  </g>
</svg>